<?xml version="1.0" standalone="no"?>
<!DOCTYPE svg PUBLIC "-//W3C//DTD SVG 20010904//EN"
 "http://www.w3.org/TR/2001/REC-SVG-20010904/DTD/svg10.dtd">
<svg version="1.0" xmlns="http://www.w3.org/2000/svg"
 width="504.000000pt" height="417.000000pt" viewBox="0 0 504.000000 417.000000"
 preserveAspectRatio="xMidYMid meet">

<g transform="translate(0.000000,417.000000) scale(0.100000,-0.100000)"
fill="#000000" stroke="none">
<path d="M110 2064 l0 -2014 248 0 248 0 122 122 123 123 -1 1525 0 1525 -370
367 -370 366 0 -2014z"/>
<path d="M1890 4033 c58 -61 73 -72 84 -66 5 4 6 1 3 -4 -7 -11 536 -558 553
-558 8 0 680 664 680 672 0 2 -307 3 -682 3 l-682 0 44 -47z"/>
<path d="M4577 3706 l-367 -364 2 -1643 3 -1644 362 0 c199 0 364 3 367 6 3 3
5 906 4 2007 l-3 2002 -368 -364z"/>
<path d="M1130 1887 c0 -637 3 -1157 8 -1157 4 0 171 164 371 364 l363 363 -1
404 c-1 222 -1 414 -1 426 0 18 -222 246 -736 752 -2 2 -4 -516 -4 -1152z"/>
<path d="M3916 2875 c-3 -8 -1 -15 4 -15 6 0 10 7 10 15 0 8 -2 15 -4 15 -2 0
-6 -7 -10 -15z"/>
<path d="M3901 2828 c11 -20 -1 -24 -18 -7 -8 8 -13 7 -18 -2 -5 -8 -4 -10 3
-5 9 5 12 -6 12 -38 0 -34 4 -46 15 -46 11 0 15 11 16 38 0 20 2 46 4 58 3 13
-1 21 -10 21 -10 0 -11 -5 -4 -19z"/>
<path d="M3842 2790 c0 -14 2 -19 5 -12 2 6 2 18 0 25 -3 6 -5 1 -5 -13z"/>
<path d="M3819 2775 c-1 -3 -2 -11 -3 -17 -1 -7 -8 -12 -15 -10 -7 1 -10 -2
-7 -7 4 -5 1 -11 -5 -13 -5 -2 3 -17 20 -33 37 -37 43 -90 11 -98 -27 -7 -25
-25 3 -30 12 -2 -3 -4 -34 -3 -50 1 -55 3 -57 24 -2 21 1 23 30 17 26 -6 30
-5 25 9 -3 8 -1 18 4 22 6 3 -2 12 -16 20 -36 18 -43 18 -41 -3 1 -12 -6 -18
-19 -18 -11 0 -19 6 -17 13 1 8 -2 11 -8 7 -5 -3 -10 -16 -10 -28 0 -16 -3
-18 -9 -9 -7 11 -9 11 -14 -1 -4 -12 2 -14 31 -10 l37 5 -19 -21 c-13 -14 -15
-21 -6 -21 7 0 10 -3 6 -7 -4 -5 -14 1 -22 11 -7 11 -17 16 -21 12 -4 -4 -3
-10 3 -14 6 -4 14 -29 18 -55 6 -41 4 -51 -11 -63 -15 -12 -16 -15 -3 -23 24
-16 5 -24 -66 -27 -37 -2 -68 -5 -71 -7 -2 -2 -6 -27 -10 -56 l-6 -51 -41 2
c-34 2 -42 7 -42 22 1 10 -7 20 -16 21 -12 2 -18 -3 -18 -15 0 -13 -6 -18 -23
-16 -20 2 -23 -1 -21 -21 2 -20 0 -22 -12 -12 -7 6 -11 16 -7 23 4 6 -1 5 -10
-3 -18 -14 -23 -26 -8 -16 5 3 12 1 16 -5 3 -5 1 -11 -4 -11 -6 -1 -15 -3 -21
-4 -5 -1 -14 -3 -20 -4 -5 0 -10 -9 -10 -18 0 -15 2 -16 10 -3 5 8 10 11 10 6
0 -6 5 -5 12 2 7 7 22 12 35 12 17 0 23 -6 23 -21 0 -19 -4 -21 -37 -16 -27 5
-33 3 -25 -5 13 -13 16 -29 5 -27 -30 5 -41 -2 -35 -23 5 -21 6 -21 13 -2 7
16 8 17 8 2 1 -26 49 -24 59 1 4 11 6 -430 4 -980 l-3 -999 161 0 160 0 0 955
0 955 75 0 75 0 0 82 c0 45 3 78 7 74 4 -4 7 -472 8 -1041 l0 -1035 -255 1
c-322 0 -310 0 -310 -8 0 -5 128 -8 285 -8 157 0 285 3 285 8 0 4 5 7 10 7 6
0 10 -6 10 -14 0 -7 9 -16 19 -19 14 -3 18 -11 14 -26 -6 -25 -21 -27 -30 -6
-5 14 -7 14 -22 1 -15 -13 -66 -16 -334 -18 -201 -2 -318 -7 -320 -13 -1 -7
116 -10 338 -10 l340 -1 -340 6 -340 5 365 3 366 2 1 38 c0 20 -2 31 -4 24 -3
-6 -9 -10 -13 -7 -5 3 -7 12 -4 20 4 8 10 13 14 10 4 -3 4 12 -1 33 -11 49
-11 60 2 42 8 -12 9 -11 5 5 -15 61 -17 90 -6 75 9 -13 10 -12 6 5 -15 61 -17
90 -6 75 9 -13 10 -12 6 5 -15 61 -17 90 -6 75 9 -13 10 -12 6 5 -15 61 -17
90 -6 75 9 -13 10 -12 6 5 -15 61 -17 90 -6 75 9 -13 10 -12 6 5 -15 61 -17
90 -6 75 9 -13 10 -12 6 5 -15 61 -17 90 -6 75 9 -13 10 -12 6 5 -15 61 -17
90 -6 75 9 -13 10 -12 6 5 -15 61 -17 90 -6 75 9 -13 10 -12 6 5 -15 61 -17
90 -6 75 9 -13 10 -12 6 5 -15 61 -17 90 -6 75 9 -13 10 -12 6 5 -15 61 -17
90 -6 75 9 -13 10 -12 6 5 -15 61 -17 90 -6 75 9 -13 10 -12 6 5 -15 61 -17
90 -6 75 9 -13 10 -12 6 5 -15 61 -17 90 -6 75 9 -13 10 -12 6 5 -15 61 -17
90 -6 75 9 -13 10 -12 6 5 -15 61 -17 90 -6 75 9 -13 10 -12 6 5 -15 61 -17
90 -6 75 9 -13 10 -12 6 5 -15 61 -17 90 -6 75 9 -13 10 -12 6 5 -15 61 -17
90 -6 75 9 -13 10 -12 6 5 -15 61 -17 90 -6 75 9 -13 10 -12 6 5 -15 61 -17
90 -6 75 9 -13 10 -12 6 5 -15 62 -17 90 -6 75 10 -13 11 -12 6 3 -3 10 -7 53
-7 95 l-2 77 -12 -85 -13 -85 1 86 c2 66 -1 85 -10 82 -8 -3 -13 -22 -13 -44
0 -21 -4 -39 -10 -39 -6 0 -10 100 -10 279 0 179 -4 282 -10 286 -6 4 -8 11
-5 16 4 5 1 9 -5 9 -6 0 -8 5 -5 10 3 6 4 10 1 10 -3 0 -7 -2 -7 -5z m21 -55
c0 -5 -7 -7 -15 -4 -8 4 -12 10 -9 15 6 11 24 2 24 -11z m-423 -429 c-3 -14
-1 -18 9 -14 8 3 14 -1 14 -10 0 -9 8 -18 18 -21 9 -2 4 -4 -12 -3 -32 2 -52
26 -43 51 9 23 20 20 14 -3z m103 -26 c0 -8 -4 -15 -8 -15 -5 0 -9 7 -9 15 0
8 4 15 9 15 4 0 8 -7 8 -15z m360 -185 c0 -11 5 -20 10 -20 6 0 10 -11 10 -25
0 -14 -4 -25 -10 -25 -5 0 -10 -7 -10 -15 0 -8 5 -15 10 -15 6 0 10 -11 10
-25 0 -14 -4 -25 -10 -25 -5 0 -10 -7 -10 -15 0 -8 5 -15 10 -15 6 0 10 -11
10 -25 0 -14 -4 -25 -10 -25 -5 0 -10 -7 -10 -15 0 -8 5 -15 10 -15 6 0 10
-11 10 -25 0 -14 -4 -25 -10 -25 -5 0 -10 -7 -10 -15 0 -8 5 -15 10 -15 6 0
10 -11 10 -25 0 -14 -4 -25 -10 -25 -5 0 -10 -7 -10 -15 0 -8 5 -15 10 -15 6
0 10 -11 10 -25 0 -14 -4 -25 -10 -25 -5 0 -10 -7 -10 -15 0 -8 5 -15 10 -15
6 0 10 -11 10 -25 0 -14 -4 -25 -10 -25 -5 0 -10 -7 -10 -15 0 -8 5 -15 10
-15 6 0 10 -11 10 -25 0 -14 -4 -25 -10 -25 -5 0 -10 -7 -10 -15 0 -8 5 -15
10 -15 6 0 10 -11 10 -25 0 -14 -4 -25 -10 -25 -5 0 -10 -7 -10 -15 0 -8 5
-15 10 -15 6 0 10 -11 10 -25 0 -14 -4 -25 -10 -25 -5 0 -10 -7 -10 -15 0 -8
5 -15 10 -15 6 0 10 -11 10 -25 0 -14 -4 -25 -10 -25 -5 0 -10 -7 -10 -15 0
-8 5 -15 10 -15 6 0 10 -11 10 -25 0 -14 -4 -25 -10 -25 -5 0 -10 -7 -10 -15
0 -8 5 -15 10 -15 6 0 10 -11 10 -25 0 -14 -4 -25 -10 -25 -5 0 -10 -7 -10
-15 0 -8 5 -15 10 -15 6 0 10 -11 10 -25 0 -14 -4 -25 -10 -25 -5 0 -10 -7
-10 -15 0 -8 5 -15 10 -15 6 0 10 -11 10 -25 0 -14 -4 -25 -10 -25 -5 0 -10
-7 -10 -15 0 -8 5 -15 10 -15 6 0 10 -11 10 -25 0 -14 -4 -25 -10 -25 -5 0
-10 -7 -10 -15 0 -8 5 -15 10 -15 6 0 10 -11 10 -25 0 -14 -4 -25 -10 -25 -5
0 -10 -7 -10 -15 0 -8 5 -15 10 -15 6 0 10 -11 10 -25 0 -14 -4 -25 -10 -25
-5 0 -10 -7 -10 -15 0 -8 5 -15 10 -15 6 0 10 -11 10 -25 0 -14 -4 -25 -10
-25 -5 0 -10 -7 -10 -15 0 -8 5 -15 10 -15 6 0 10 -11 10 -25 0 -14 -4 -25
-10 -25 -5 0 -10 -7 -10 -15 0 -8 5 -15 10 -15 6 0 10 -11 10 -25 0 -14 -4
-25 -10 -25 -5 0 -10 -7 -10 -15 0 -8 5 -15 10 -15 6 0 10 -11 10 -25 0 -14
-4 -25 -10 -25 -5 0 -10 -7 -10 -15 0 -8 5 -15 10 -15 6 0 10 -11 10 -25 0
-14 -4 -25 -10 -25 -5 0 -10 -7 -10 -15 0 -8 4 -15 9 -15 5 0 11 -11 13 -25 4
-17 1 -25 -8 -25 -8 0 -14 7 -14 15 0 8 -4 15 -10 15 -5 0 -10 11 -10 25 0 14
5 25 10 25 6 0 10 7 10 15 0 8 -4 15 -10 15 -5 0 -10 11 -10 25 0 14 5 25 10
25 6 0 10 7 10 15 0 8 -4 15 -10 15 -5 0 -10 11 -10 25 0 14 5 25 10 25 6 0
10 7 10 15 0 8 -4 15 -10 15 -5 0 -10 11 -10 25 0 14 5 25 10 25 6 0 10 7 10
15 0 8 -4 15 -10 15 -5 0 -10 11 -10 25 0 14 5 25 10 25 6 0 10 7 10 15 0 8
-4 15 -10 15 -5 0 -10 11 -10 25 0 14 5 25 10 25 6 0 10 7 10 15 0 8 -4 15
-10 15 -5 0 -10 11 -10 25 0 14 5 25 10 25 6 0 10 7 10 15 0 8 -4 15 -10 15
-5 0 -10 11 -10 25 0 14 5 25 10 25 6 0 10 7 10 15 0 8 -4 15 -10 15 -5 0 -10
11 -10 25 0 14 5 25 10 25 6 0 10 7 10 15 0 8 -4 15 -10 15 -5 0 -10 11 -10
25 0 14 5 25 10 25 6 0 10 7 10 15 0 8 -4 15 -10 15 -5 0 -10 11 -10 25 0 14
5 25 10 25 6 0 10 7 10 15 0 8 -4 15 -10 15 -5 0 -10 11 -10 25 0 14 5 25 10
25 6 0 10 7 10 15 0 8 -4 15 -10 15 -5 0 -10 11 -10 25 0 14 5 25 10 25 6 0
10 7 10 15 0 8 -4 15 -10 15 -5 0 -10 11 -10 25 0 14 5 25 10 25 6 0 10 7 10
15 0 8 -4 15 -10 15 -5 0 -10 11 -10 25 0 14 5 25 10 25 6 0 10 7 10 15 0 8
-4 15 -10 15 -5 0 -10 11 -10 25 0 14 5 25 10 25 6 0 10 7 10 15 0 8 -4 15
-10 15 -5 0 -10 11 -10 25 0 14 5 25 10 25 6 0 10 7 10 15 0 8 -4 15 -10 15
-5 0 -10 11 -10 25 0 14 5 25 10 25 6 0 10 7 10 15 0 8 -4 15 -10 15 -5 0 -10
11 -10 25 0 14 5 25 10 25 6 0 10 7 10 15 0 8 -4 15 -10 15 -5 0 -10 11 -10
25 0 14 5 25 10 25 6 0 10 7 10 15 0 8 -4 15 -10 15 -5 0 -10 11 -10 25 0 14
5 25 10 25 6 0 10 7 10 15 0 8 -4 15 -10 15 -5 0 -10 11 -10 25 0 14 5 25 10
25 6 0 10 7 10 15 0 8 -4 15 -10 15 -5 0 -10 11 -10 25 0 14 5 25 10 25 6 0
10 7 10 15 0 8 -4 15 -10 15 -5 0 -10 14 -10 30 0 17 5 30 10 30 6 0 10 -9 10
-20z"/>
<path d="M3736 2692 c-3 -5 1 -9 9 -9 8 0 12 4 9 9 -3 4 -7 8 -9 8 -2 0 -6 -4
-9 -8z"/>
<path d="M3635 2580 c3 -5 8 -10 11 -10 2 0 4 5 4 10 0 6 -5 10 -11 10 -5 0
-7 -4 -4 -10z"/>
<path d="M3525 2485 c-33 -36 -61 -67 -62 -69 -2 -1 10 -2 27 -2 16 0 27 2 25
5 -2 4 4 15 12 26 11 14 17 16 20 8 3 -7 9 -13 14 -13 6 0 7 5 4 10 -3 6 3 10
14 10 12 0 21 6 21 13 0 8 6 14 14 14 9 0 11 -8 8 -21 -5 -20 -5 -20 12 -3 24
24 13 51 -16 41 -13 -4 -34 -8 -46 -10 -23 -2 -23 -2 -6 17 21 23 25 24 17 2
-4 -10 -2 -14 5 -9 11 6 13 46 2 46 -3 0 -33 -29 -65 -65z m-15 -45 c-6 -11
-16 -20 -22 -20 -6 0 -3 9 7 20 10 11 20 20 22 20 2 0 -1 -9 -7 -20z"/>
<path d="M3630 2540 c0 -13 11 -13 30 0 12 8 11 10 -7 10 -13 0 -23 -4 -23
-10z"/>
<path d="M3397 2362 c-16 -18 -16 -19 5 -17 13 1 29 -2 35 -7 15 -12 43 -3 43
13 0 6 -13 9 -36 6 -27 -4 -34 -2 -30 9 7 19 2 18 -17 -4z"/>
<path d="M3228 2189 c-36 -34 -51 -58 -28 -44 6 4 10 -8 10 -29 0 -20 5 -36
10 -36 7 0 10 -323 10 -950 0 -753 -3 -950 -12 -950 -14 0 11 -20 24 -20 4 0
9 436 10 969 3 805 1 968 -10 963 -11 -4 -13 6 -10 44 3 40 7 48 21 46 9 -2
17 2 17 8 0 6 5 8 10 5 14 -9 12 4 -2 18 -10 9 -21 4 -50 -24z"/>
<path d="M3248 2144 c2 -19 8 -34 12 -34 12 0 9 58 -4 63 -8 3 -11 -5 -8 -29z"/>
<path d="M2156 2114 c6 -46 14 -58 14 -20 0 15 4 25 10 21 5 -3 7 -12 3 -20
-3 -8 -1 -15 4 -15 18 0 10 29 -13 51 l-23 21 5 -38z"/>
<path d="M2210 2082 c0 -7 6 -15 14 -18 9 -3 12 -13 9 -22 -5 -14 -3 -15 8 -4
11 10 10 16 -9 34 -13 13 -22 17 -22 10z"/>
<path d="M2174 2058 c-12 -19 -13 -51 -1 -66 12 -15 77 -13 77 3 1 5 9 -8 20
-30 11 -25 15 -44 9 -49 -5 -6 -9 -16 -9 -24 0 -10 8 -8 29 7 22 16 28 26 23
44 -5 19 -4 20 11 8 9 -7 14 -17 11 -22 -3 -5 -1 -9 5 -9 21 0 19 18 -4 40
-22 20 -25 21 -31 6 -3 -9 -3 -23 0 -32 10 -26 -12 -5 -28 27 -18 36 -11 59
10 32 7 -10 14 -13 14 -7 0 19 -26 35 -46 27 -15 -5 -17 -4 -9 8 6 8 2 6 -9
-6 -19 -20 -53 -22 -71 -3 -7 7 1 9 25 5 34 -5 34 -5 8 6 -16 6 -28 15 -28 20
0 5 7 6 16 3 10 -4 14 -1 12 6 -6 17 -25 21 -34 6z"/>
<path d="M2165 1950 c3 -5 8 -10 11 -10 2 0 4 5 4 10 0 6 -5 10 -11 10 -5 0
-7 -4 -4 -10z"/>
<path d="M2245 1941 c4 -13 -2 -26 -16 -39 l-21 -20 23 -12 c21 -12 21 -14 6
-25 -28 -20 -19 -27 11 -8 l27 17 -19 -22 c-20 -23 -13 -32 7 -9 7 7 28 31 47
52 l35 39 -38 -28 c-31 -23 -41 -25 -53 -15 -13 10 -13 15 2 36 16 25 13 53
-6 53 -7 0 -9 -8 -5 -19z"/>
<path d="M2170 1920 c20 -13 50 -13 50 0 0 6 -15 10 -32 10 -25 0 -29 -3 -18
-10z"/>
<path d="M2160 1875 c0 -9 6 -12 15 -9 8 4 15 7 15 9 0 2 -7 5 -15 9 -9 3 -15
0 -15 -9z"/>
<path d="M2165 1840 c-4 -6 -2 -17 4 -24 7 -9 7 -16 -1 -24 -8 -8 -9 -12 -1
-12 16 0 25 31 13 45 -9 10 -6 15 12 18 22 4 22 4 1 6 -12 0 -25 -4 -28 -9z"/>
<path d="M2205 1789 c-11 -17 1 -21 15 -4 8 9 8 15 2 15 -6 0 -14 -5 -17 -11z"/>
<path d="M2157 1763 c-4 -3 -7 -15 -7 -26 0 -19 1 -20 20 -2 11 10 20 22 20
27 0 10 -24 11 -33 1z m23 -7 c0 -3 -4 -8 -10 -11 -5 -3 -10 -1 -10 4 0 6 5
11 10 11 6 0 10 -2 10 -4z"/>
<path d="M1465 609 c-225 -225 -409 -414 -408 -419 2 -6 -1 -9 -5 -7 -9 2
-132 -112 -132 -122 0 -3 210 -5 467 -4 258 2 476 3 486 3 16 0 17 30 17 480
0 264 -3 480 -7 479 -5 0 -192 -185 -418 -410z"/>
<path d="M3200 124 c0 -7 6 -13 13 -15 6 -2 150 -3 320 -1 267 3 307 5 307 18
0 14 -38 15 -320 13 -239 -2 -320 -6 -320 -15z"/>
</g>
</svg>
